<svg width="271" height="26" viewBox="0 0 271 26" fill="none" xmlns="http://www.w3.org/2000/svg">
<path fill-rule="evenodd" clip-rule="evenodd" d="M127.15 6.06304C128.138 5.46394 129.275 5.15522 130.431 5.17223C131.334 5.16925 132.228 5.35922 133.052 5.72944C133.839 6.07169 134.543 6.57891 135.117 7.21681C135.642 7.78843 136.015 8.48291 136.201 9.23634H140.868C140.757 7.72799 140.209 6.28462 139.291 5.08279C138.306 3.77898 137.018 2.73542 135.538 2.04276C133.826 1.24804 131.953 0.863401 130.068 0.91941C128.182 0.973826 126.335 1.46783 124.674 2.36206C122.99 3.29734 121.6 4.68448 120.662 6.36714C119.714 8.13982 119.219 10.1119 119.219 12.1136C119.219 14.1152 119.714 16.0883 120.662 17.8609C121.6 19.5442 122.99 20.9315 124.675 21.866C126.337 22.7586 128.183 23.2527 130.068 23.3092C131.953 23.3657 133.826 22.9831 135.538 22.1916C137.014 21.5077 138.302 20.4751 139.291 19.1828C140.212 17.9912 140.76 16.5545 140.868 15.0526H136.201C136.015 15.7964 135.642 16.4804 135.117 17.0399C134.542 17.6718 133.838 18.1729 133.052 18.5094C132.228 18.8807 131.334 19.0727 130.431 19.0728C129.275 19.0898 128.138 18.7811 127.15 18.182C126.181 17.5869 125.397 16.7329 124.887 15.7162C124.353 14.595 124.076 13.3686 124.076 12.1266C124.076 10.8845 124.353 9.65816 124.887 8.53692C125.396 7.51767 126.18 6.66087 127.15 6.06304ZM55.852 1.29595H50.271L41.9916 10.8829V1.29684H37.2773V22.95H41.9925V12.8631L50.3175 22.95H56.0559L46.8329 11.7201L55.852 1.29595ZM68.1015 7.80621C66.7161 7.10858 65.1813 6.74546 63.6242 6.74546C62.0671 6.74546 60.5314 7.10858 59.146 7.80621C57.8543 8.48054 56.7782 9.50454 56.0407 10.7613C55.3055 12.0707 54.9209 13.5419 54.9209 15.0365C54.9209 16.531 55.3055 18.0031 56.0407 19.3125C56.7792 20.5669 57.8551 21.5887 59.146 22.2613C60.5323 22.959 62.0662 23.3221 63.6242 23.3221C65.1822 23.3221 66.7161 22.9581 68.1015 22.2613C69.3917 21.588 70.4682 20.5676 71.2095 19.3152C71.942 18.0061 72.3269 16.5312 72.3275 15.0311C72.3275 13.533 71.9429 12.059 71.2095 10.747C70.4674 9.49658 69.391 8.47813 68.1015 7.80621ZM67.0533 17.2492C66.7317 17.8682 66.2467 18.3872 65.6509 18.75C65.0443 19.1145 64.3479 19.3023 63.6403 19.292C62.9302 19.3015 62.2311 19.1152 61.6199 18.7535C61.0133 18.3953 60.5194 17.8741 60.1942 17.2492C59.8421 16.5648 59.6665 15.8033 59.6835 15.0338C59.668 14.2633 59.8435 13.501 60.1942 12.8148C60.519 12.1917 61.01 11.6707 61.6127 11.3095C62.22 10.9445 62.9152 10.7517 63.6238 10.7517C64.3323 10.7517 65.0275 10.9445 65.6348 11.3095C66.2403 11.6735 66.7304 12.1941 67.0533 12.8148C67.4048 13.5026 67.581 14.2637 67.5667 15.0338C67.581 15.7999 67.4046 16.5575 67.0533 17.2384V17.2492ZM75.9677 3.25198H80.3207V7.10322H84.1692V10.9643H80.3055L80.3233 17.708C80.3171 17.8883 80.3481 18.0679 80.4144 18.2356C80.4808 18.4034 80.581 18.5556 80.7088 18.6829C80.8377 18.8116 80.9917 18.9124 81.1613 18.9789C81.3309 19.0454 81.5124 19.0761 81.6945 19.0693H84.1674V22.942H80.5094C79.6436 22.9587 78.7872 22.7595 78.0176 22.3624C77.311 21.9922 76.7213 21.4326 76.3147 20.7462C75.8997 20.0333 75.6875 19.2206 75.7011 18.3958V10.9706H72.8624V7.10143H74.644C74.8204 7.10888 74.9966 7.08055 75.1618 7.01814C75.3271 6.95574 75.478 6.86055 75.6054 6.73831C75.7256 6.61468 75.8195 6.46813 75.8818 6.3074C75.944 6.14667 75.9732 5.97505 75.9677 5.80278V3.25198ZM91.1079 1.29505H86.5036V22.95H91.1079V1.29505ZM94.2293 7.10858H98.8497V22.9482H94.2302L94.2293 7.10858ZM98.9785 1.29505H94.122V5.19459H98.9785V1.29505ZM111.316 6.73294C112.375 6.71209 113.422 6.97125 114.35 7.48423C115.223 7.99239 115.929 8.7451 116.38 9.64954C116.89 10.6851 117.142 11.8289 117.113 12.9829V22.9437H112.493V13.7566C112.507 13.1928 112.388 12.6335 112.146 12.1243C111.933 11.6852 111.592 11.3211 111.168 11.0806C110.709 10.8335 110.192 10.7111 109.671 10.7255C109.103 10.7152 108.543 10.8536 108.046 11.1271C107.581 11.3927 107.205 11.7845 106.963 12.2558C106.698 12.7721 106.565 13.3462 106.576 13.9265V22.9437H101.972V7.10501H106.477V9.24349C106.902 8.56054 107.479 7.98507 108.163 7.56204C109.115 6.99373 110.208 6.70629 111.316 6.73294ZM151.344 6.74546C152.901 6.74546 154.436 7.10858 155.821 7.80621C157.112 8.47908 158.189 9.49958 158.929 10.7523C159.662 12.0615 160.047 13.5364 160.047 15.0365C160.047 16.5346 159.663 18.0085 158.929 19.3206C158.189 20.5737 157.112 21.5945 155.821 22.2676C154.436 22.9652 152.901 23.3283 151.344 23.3283C149.787 23.3283 148.251 22.9652 146.866 22.2676C145.574 21.5932 144.498 20.5692 143.761 19.3125C143.026 18.0031 142.641 16.5319 142.641 15.0373C142.641 13.5428 143.026 12.0707 143.761 10.7613C144.498 9.50457 145.574 8.48058 146.866 7.80621C148.255 7.10813 149.789 6.74486 151.344 6.74546ZM153.371 18.75C153.967 18.3872 154.452 17.8681 154.773 17.2492V17.2384C155.125 16.556 155.301 15.8003 155.287 15.0356C155.301 14.2648 155.125 13.5025 154.773 12.8166C154.449 12.1934 153.958 11.6724 153.355 11.3113C152.747 10.9465 152.052 10.7538 151.344 10.7538C150.635 10.7538 149.94 10.9465 149.333 11.3113C148.73 11.6726 148.24 12.1936 147.915 12.8166C147.564 13.5026 147.388 14.265 147.403 15.0356C147.387 15.8045 147.563 16.5655 147.915 17.2492C148.237 17.8708 148.731 18.3922 149.34 18.7535C149.949 19.1149 150.648 19.3009 151.36 19.292C152.069 19.3009 152.767 19.1131 153.371 18.75ZM174.556 7.48333C173.629 6.9707 172.582 6.71186 171.522 6.73294C170.414 6.70609 169.321 6.99355 168.37 7.56204C167.685 7.98536 167.108 8.56074 166.682 9.24349V7.10501H162.19V22.9446H166.792V13.9256C166.781 13.3451 166.914 12.7709 167.18 12.2549C167.425 11.782 167.801 11.39 168.263 11.1262C168.761 10.8524 169.321 10.7137 169.888 10.7237C170.41 10.7096 170.926 10.8323 171.386 11.0797C171.81 11.32 172.151 11.6841 172.363 12.1234C172.605 12.6327 172.723 13.192 172.708 13.7557V22.9429H177.328V12.9829C177.356 11.829 177.105 10.6854 176.595 9.64954C176.142 8.74402 175.433 7.99103 174.556 7.48333ZM187.09 4.83147C186.935 4.88845 186.793 4.97604 186.672 5.08905C186.556 5.20597 186.467 5.3455 186.408 5.49883C186.35 5.65216 186.324 5.81595 186.332 5.97987V7.10858H190.232V10.9759H186.332V22.9473H181.712V10.9759H178.858V7.10858H181.712V5.50047C181.696 4.72312 181.904 3.95755 182.312 3.2958C182.722 2.65226 183.307 2.1395 183.998 1.81827C184.784 1.45621 185.641 1.27672 186.505 1.29326H190.321V4.75813H187.578C187.412 4.75008 187.246 4.77443 187.09 4.83147Z" fill="black"/>
<path d="M262.768 18.3511H252.265V14.6733L261.75 1.04016H264.052L265.867 1.338L256.992 14.6107H263.175V1.04016H267.464V14.6107H270.594V18.3511H267.464V22.9527H262.768V18.3511ZM235.94 19.3993L244.736 11.7147C245.404 11.1101 245.905 10.5046 246.239 9.89909C246.572 9.28375 246.74 8.64695 246.74 7.98957C246.74 7.3635 246.604 6.81613 246.333 6.34658C246.065 5.86966 245.662 5.48279 245.175 5.23485C244.684 4.97458 244.121 4.844 243.484 4.844C242.795 4.844 242.185 4.98979 241.653 5.28225C241.131 5.57442 240.702 6.00856 240.416 6.5344C240.124 7.06656 239.978 7.67653 239.978 8.36521H235.251C235.251 6.8841 235.601 5.55862 236.3 4.38965C237.01 3.22158 237.991 2.30841 239.243 1.65103C240.505 0.993656 241.935 0.66452 243.532 0.66452C245.075 0.66452 246.453 0.962352 247.664 1.55712C248.874 2.15189 249.818 2.98099 250.496 4.04531C251.174 5.0998 251.509 6.29917 251.498 7.64523C251.498 8.89738 251.17 10.0771 250.512 11.1825C249.865 12.2889 248.879 13.3845 247.554 14.4694L242.608 18.8206H252.046V22.9527H235.94V19.3993ZM225.067 19.1489C225.975 19.1489 226.757 18.8734 227.415 18.3198C228.072 17.7563 228.573 16.937 228.917 15.8629C229.262 14.7887 229.433 13.5097 229.433 12.0277C229.433 10.5252 229.262 9.23724 228.917 8.16219C228.573 7.08713 228.072 6.26787 227.415 5.7044C226.757 5.1311 225.975 4.844 225.067 4.844C224.159 4.844 223.376 5.12574 222.719 5.6892C222.062 6.25267 221.561 7.07193 221.217 8.14609C220.872 9.22114 220.7 10.5046 220.7 11.9964C220.7 13.4883 220.872 14.7726 221.217 15.8468C221.561 16.9209 222.062 17.7411 222.719 18.3046C223.376 18.868 224.159 19.1489 225.067 19.1489ZM225.036 23.3284C223.209 23.3284 221.607 22.8642 220.23 21.9358C218.863 21.0065 217.804 19.6918 217.053 17.9915C216.302 16.2797 215.926 14.2923 215.926 12.0277C215.926 9.75331 216.302 7.76061 217.053 6.04875C217.804 4.32705 218.863 3.00245 220.23 2.07318C221.607 1.13407 223.209 0.66452 225.036 0.66452C226.872 0.66452 228.479 1.13407 229.856 2.07318C231.244 3.00245 232.313 4.32705 233.065 6.04875C233.827 7.76061 234.208 9.75331 234.208 12.0277C234.208 14.2923 233.827 16.2797 233.065 17.9915C232.313 19.6918 231.244 21.0065 229.856 21.9358C228.479 22.8642 226.872 23.3284 225.036 23.3284ZM198.581 19.3993L207.378 11.7147C208.045 11.1101 208.546 10.5046 208.88 9.89909C209.214 9.28375 209.381 8.64695 209.381 7.98957C209.381 7.3635 209.245 6.81613 208.974 6.34658C208.706 5.86985 208.303 5.48305 207.816 5.23485C207.325 4.97458 206.761 4.844 206.125 4.844C205.437 4.844 204.826 4.98979 204.294 5.28225C203.772 5.57471 203.343 6.0088 203.058 6.5344C202.765 7.06656 202.619 7.67653 202.619 8.36521H197.893C197.893 6.8841 198.242 5.55862 198.941 4.38965C199.651 3.22158 200.631 2.30841 201.883 1.65103C203.146 0.993656 204.576 0.66452 206.172 0.66452C207.717 0.66452 209.094 0.962352 210.304 1.55712C211.515 2.15189 212.459 2.98099 213.138 4.04531C213.815 5.0998 214.149 6.29917 214.139 7.64523C214.139 8.89738 213.81 10.0771 213.153 11.1825C212.506 12.2889 211.52 13.3845 210.195 14.4694L205.249 18.8206H214.687V22.9527H198.581V19.3993Z" fill="black"/>
<g clip-path="url(#clip0_2182_353)">
<path d="M4.07288 20.7664C6.39555 23.0468 9.54564 24.3279 12.8302 24.3279C16.1149 24.3279 19.2649 23.0468 21.5876 20.7664L30.3455 12.166L21.5876 3.56862C20.4376 2.4394 19.0724 1.54364 17.5699 0.932491C16.0674 0.321338 14.4569 0.00675859 12.8306 0.00671387C9.54603 0.00662356 6.39597 1.28771 4.07337 3.56814C1.75077 5.84857 0.445893 8.94156 0.445801 12.1667C0.445709 15.3918 1.75041 18.4858 4.07288 20.7664Z" fill="#6B57FF"/>
<path d="M18.1563 15.019C17.205 15.019 16.2927 14.6479 15.62 13.9874C14.9474 13.327 14.5695 12.4312 14.5695 11.4971C14.5695 10.563 14.9474 9.66721 15.62 9.00673C16.2927 8.34625 17.205 7.97519 18.1563 7.97519C19.1076 7.97519 20.0199 8.34625 20.6925 9.00673C21.3652 9.66721 21.7431 10.563 21.7431 11.4971C21.7431 12.4312 21.3652 13.327 20.6925 13.9874C20.0199 14.6479 19.1076 15.019 18.1563 15.019Z" fill="white"/>
<path d="M19.507 13.6908C19.2094 13.6969 18.9136 13.6446 18.6369 13.537C18.3601 13.4294 18.108 13.2687 17.8954 13.0642C17.6827 12.8597 17.5137 12.6156 17.3984 12.3462C17.283 12.0768 17.2236 11.7874 17.2236 11.4952C17.2236 11.2029 17.283 10.9136 17.3984 10.6442C17.5137 10.3747 17.6827 10.1306 17.8954 9.92614C18.108 9.72166 18.3601 9.56091 18.6369 9.45332C18.9136 9.34573 19.2094 9.29346 19.507 9.29958C20.092 9.31161 20.6488 9.54822 21.0581 9.95866C21.4675 10.3691 21.6967 10.9207 21.6967 11.4952C21.6967 12.0696 21.4675 12.6212 21.0581 13.0317C20.6488 13.4421 20.092 13.6787 19.507 13.6908Z" fill="black"/>
</g>
<defs>
<clipPath id="clip0_2182_353">
<rect width="30.4092" height="25.0429" fill="white"/>
</clipPath>
</defs>
</svg>
