<svg width="297" height="73" viewBox="0 0 297 73" fill="none" xmlns="http://www.w3.org/2000/svg">
<g clip-path="url(#clip0_2149_150)">
<path d="M134.308 12.2606L142.784 7.52665C144.778 6.41205 145.464 3.9449 144.313 2.01627C143.161 0.0876332 140.607 -0.576117 138.612 0.538482L123.958 8.71639L134.308 12.2606Z" fill="#EA4335"/>
<path d="M140.695 24.4148C142.136 24.4148 143.539 23.6885 144.313 22.3985C145.464 20.4699 144.785 18.0028 142.784 16.8882L128.13 8.71026C126.135 7.59566 123.581 8.25315 122.429 10.188C121.278 12.1167 121.957 14.5838 123.958 15.6984L138.612 23.8763C139.267 24.2458 139.99 24.4211 140.695 24.4211V24.4148Z" fill="#4285F4"/>
<path d="M155.273 24.4148C155.978 24.4148 156.702 24.2395 157.356 23.8701L172.01 15.6922L161.798 12.0791L153.184 16.8819C151.19 17.9965 150.504 20.4636 151.655 22.3923C152.429 23.6885 153.826 24.4086 155.267 24.4086L155.273 24.4148Z" fill="#FBBC04"/>
<path d="M169.921 16.243C171.362 16.243 172.765 15.5167 173.539 14.2268C174.69 12.2981 174.011 9.83097 172.01 8.71637L157.356 0.544732C155.361 -0.569868 152.807 0.0876207 151.655 2.02252C150.504 3.95115 151.183 6.41829 153.184 7.53289L167.838 15.7108C168.499 16.0802 169.216 16.2556 169.921 16.2556V16.243Z" fill="#0F9D58"/>
<path d="M9.57009 51.3403C7.83351 51.3403 6.22276 50.9207 4.74415 50.0816C3.28441 49.2426 2.12039 48.0904 1.26469 46.6189C0.421562 45.1473 0 43.5193 0 41.7409C0 39.9626 0.421562 38.3345 1.26469 36.863C2.12669 35.3915 3.28441 34.233 4.74415 33.4002C6.22276 32.5611 7.83351 32.1416 9.57009 32.1416C10.9292 32.1416 12.2001 32.3795 13.3893 32.8617C14.5911 33.3439 15.5852 34.0201 16.3528 34.8905L14.7798 36.456C14.1947 35.7359 13.4397 35.1911 12.5084 34.8154C11.5961 34.4209 10.6146 34.2268 9.57009 34.2268C8.28024 34.2268 7.06589 34.5461 5.93333 35.1786C4.81336 35.7922 3.91361 36.6751 3.22149 37.821C2.54825 38.9482 2.21477 40.2631 2.21477 41.7472C2.21477 43.2312 2.54825 44.5525 3.22149 45.6984C3.90732 46.8255 4.81336 47.7084 5.93333 48.3409C7.06589 48.9545 8.28024 49.2676 9.57009 49.2676C10.8599 49.2676 11.8415 49.0798 12.6657 48.704C13.5089 48.3096 14.2387 47.7961 14.8616 47.1636C15.3084 46.6815 15.6733 46.1054 15.9439 45.4166C16.2207 44.7341 16.3843 43.9889 16.4346 43.1811H9.62672V41.1523H18.4984C18.5865 41.6345 18.6305 42.0791 18.6305 42.4861C18.6305 43.6132 18.4481 44.7215 18.0894 45.7986C17.7308 46.8568 17.1519 47.7898 16.3591 48.5976C14.6225 50.426 12.3637 51.3465 9.57638 51.3465L9.57009 51.3403ZM27.0807 51.3403C25.8286 51.3403 24.696 51.0522 23.7019 50.4699C22.7077 49.8687 21.9212 49.0547 21.355 48.0278C20.8076 46.9821 20.5307 45.8299 20.5307 44.565C20.5307 43.3001 20.8076 42.1542 21.355 41.1273C21.9212 40.0816 22.7077 39.2675 23.7019 38.6914C24.7023 38.0903 25.8286 37.7897 27.0807 37.7897C28.3328 37.7897 29.4653 38.0903 30.4594 38.6914C31.4724 39.2738 32.2589 40.0878 32.8063 41.1273C33.3726 42.1542 33.6558 43.3001 33.6558 44.565C33.6558 45.8299 33.3726 46.9883 32.8063 48.0278C32.2589 49.0547 31.4724 49.8687 30.4594 50.4699C29.4653 51.0522 28.3328 51.3403 27.0807 51.3403ZM27.0807 49.3615C27.8546 49.3615 28.5781 49.1674 29.2451 48.7729C29.9183 48.3784 30.4469 47.8211 30.8433 47.101C31.2585 46.3621 31.4599 45.5168 31.4599 44.5587C31.4599 43.6007 31.2522 42.7616 30.8433 42.0415C30.4469 41.3026 29.912 40.739 29.2451 40.3446C28.5718 39.9501 27.8546 39.7559 27.0807 39.7559C26.3067 39.7559 25.6083 39.9501 24.9414 40.3446C24.2681 40.739 23.727 41.3026 23.3181 42.0415C22.9217 42.7616 22.7266 43.6007 22.7266 44.5587C22.7266 45.5168 22.9279 46.3621 23.3181 47.101C23.7333 47.8211 24.2744 48.3784 24.9414 48.7729C25.6146 49.1674 26.3256 49.3615 27.0807 49.3615ZM41.9675 51.3403C40.7091 51.3403 39.5828 51.0522 38.5887 50.4699C37.5882 49.8687 36.808 49.0547 36.2418 48.0278C35.6944 46.9821 35.4175 45.8299 35.4175 44.565C35.4175 43.3001 35.6944 42.1542 36.2418 41.1273C36.808 40.0816 37.5945 39.2675 38.5887 38.6914C39.5891 38.0903 40.7154 37.7897 41.9675 37.7897C43.2196 37.7897 44.3521 38.0903 45.3462 38.6914C46.3593 39.2738 47.1458 40.0878 47.6932 41.1273C48.2594 42.1542 48.5426 43.3001 48.5426 44.565C48.5426 45.8299 48.2594 46.9883 47.6932 48.0278C47.1458 49.0547 46.3593 49.8687 45.3462 50.4699C44.3521 51.0522 43.2196 51.3403 41.9675 51.3403ZM41.9675 49.3615C42.7414 49.3615 43.465 49.1674 44.1319 48.7729C44.8051 48.3784 45.3337 47.8211 45.7301 47.101C46.1453 46.3621 46.3467 45.5168 46.3467 44.5587C46.3467 43.6007 46.139 42.7616 45.7301 42.0415C45.3337 41.3026 44.7988 40.739 44.1319 40.3446C43.4587 39.9501 42.7414 39.7559 41.9675 39.7559C41.1935 39.7559 40.4951 39.9501 39.8282 40.3446C39.1549 40.739 38.6138 41.3026 38.2049 42.0415C37.8085 42.7616 37.6134 43.6007 37.6134 44.5587C37.6134 45.5168 37.8148 46.3621 38.2049 47.101C38.6201 47.8211 39.1612 48.3784 39.8282 48.7729C40.5014 49.1674 41.2124 49.3615 41.9675 49.3615ZM56.6466 56.8819C55.0988 56.8819 53.8341 56.5125 52.8526 55.7799C51.871 55.0472 51.2104 54.1894 50.8643 53.2125L52.9029 52.3672C53.1609 53.1186 53.6139 53.726 54.2683 54.1894C54.9415 54.6715 55.728 54.9095 56.6403 54.9095C57.9994 54.9095 59.0376 54.5087 59.7612 53.701C60.5036 52.912 60.8685 51.8099 60.8685 50.3885V49.0297H60.7679C60.3526 49.6809 59.7612 50.2194 58.9872 50.6452C58.2133 51.071 57.3387 51.2902 56.3572 51.2902C55.275 51.2902 54.2683 51.0021 53.3371 50.4198C52.4058 49.8374 51.6697 49.0359 51.116 48.009C50.5686 46.9821 50.2917 45.8236 50.2917 44.5462C50.2917 43.2688 50.5686 42.1041 51.116 41.0834C51.6697 40.0565 52.4058 39.255 53.3371 38.6727C54.2683 38.0903 55.2687 37.8023 56.3572 37.8023C57.3387 37.8023 58.2133 38.0152 58.9872 38.4472C59.7612 38.873 60.3526 39.4115 60.7679 40.0628H60.8685V38.2155H62.9575V50.4386C62.9575 51.8412 62.6806 53.0309 62.1332 54.0078C61.5858 54.9846 60.8245 55.711 59.8618 56.1869C58.918 56.6691 57.8421 56.907 56.6403 56.907L56.6466 56.8819ZM56.7033 49.3114C57.4583 49.3114 58.1567 49.1236 58.7922 48.7479C59.4277 48.3534 59.9373 47.7961 60.3149 47.076C60.7112 46.3559 60.9063 45.5105 60.9063 44.5337C60.9063 43.5569 60.7112 42.7115 60.3149 41.9914C59.9373 41.2525 59.4277 40.7015 58.7922 40.3195C58.1567 39.9438 57.4583 39.7559 56.7033 39.7559C55.9482 39.7559 55.2498 39.9501 54.6143 40.3446C53.9788 40.7203 53.4629 41.2713 53.0665 41.9851C52.689 42.7052 52.5002 43.5506 52.5002 44.5274C52.5002 45.5043 52.689 46.3496 53.0665 47.0697C53.4629 47.7898 53.9788 48.3471 54.6143 48.7416C55.2498 49.1173 55.9482 49.3052 56.7033 49.3052V49.3114ZM66.1916 32.5486H68.3875V50.9332H66.1916V32.5486ZM77.1585 51.3403C75.9189 51.3403 74.8116 51.0522 73.83 50.4699C72.8673 49.8875 72.1123 49.086 71.5586 48.0591C71.0049 47.0321 70.7344 45.8675 70.7344 44.565C70.7344 43.3314 70.9923 42.2043 71.5083 41.1774C72.0242 40.1317 72.7541 39.3114 73.7042 38.7102C74.6668 38.0966 75.7679 37.7835 77.0075 37.7835C78.247 37.7835 79.3292 38.0653 80.2604 38.6288C81.2042 39.1736 81.9278 39.9563 82.4248 40.9645C82.9219 41.9726 83.1736 43.1373 83.1736 44.4586C83.1736 44.6965 83.1547 44.8718 83.1233 44.972H72.9617C72.9932 45.9301 73.226 46.7441 73.6601 47.4079C74.088 48.0591 74.6228 48.5475 75.2583 48.8731C75.9127 49.1987 76.5796 49.3615 77.2717 49.3615C78.8888 49.3615 80.1346 48.5725 81.0154 47.0008L82.9471 47.9276C82.3934 48.9545 81.632 49.7873 80.6505 50.4198C79.6878 51.0334 78.5238 51.3465 77.1648 51.3465L77.1585 51.3403ZM80.8456 43.1498C80.8078 42.6364 80.6631 42.1229 80.4051 41.6094C80.1472 41.096 79.7256 40.6576 79.1404 40.3007C78.5742 39.9438 77.8443 39.7622 76.9445 39.7622C75.9819 39.7622 75.145 40.069 74.4403 40.689C73.7356 41.3026 73.2889 42.1292 73.1001 43.1561H80.8393L80.8456 43.1498ZM92.0767 32.5486H97.6766C99.5705 32.5486 101.219 32.9431 102.628 33.7321C104.038 34.5023 105.12 35.5793 105.881 36.9694C106.636 38.3533 107.014 39.9501 107.014 41.7472C107.014 43.5443 106.636 45.1348 105.881 46.5249C105.126 47.9088 104.044 48.9984 102.628 49.7873C101.219 50.5575 99.5705 50.9458 97.6766 50.9458H92.0767V32.5611V32.5486ZM97.6703 48.8481C99.8536 48.8481 101.584 48.2219 102.855 46.9758C104.126 45.7234 104.761 43.9827 104.761 41.7409C104.761 39.4992 104.126 37.7522 102.855 36.5061C101.584 35.2537 99.8536 34.6338 97.6703 34.6338H94.2663V48.8543H97.6703V48.8481ZM115.049 51.3403C113.809 51.3403 112.702 51.0522 111.72 50.4699C110.758 49.8875 110.003 49.086 109.449 48.0591C108.895 47.0321 108.625 45.8675 108.625 44.565C108.625 43.3314 108.883 42.2043 109.399 41.1774C109.914 40.1317 110.644 39.3114 111.588 38.7102C112.551 38.0966 113.652 37.7835 114.891 37.7835C116.131 37.7835 117.213 38.0653 118.144 38.6288C119.088 39.1736 119.812 39.9563 120.309 40.9645C120.806 41.9726 121.058 43.1373 121.058 44.4586C121.058 44.6965 121.039 44.8718 121.007 44.972H110.846C110.877 45.9301 111.11 46.7441 111.544 47.4079C111.972 48.0591 112.507 48.5475 113.142 48.8731C113.797 49.1987 114.464 49.3615 115.156 49.3615C116.773 49.3615 118.019 48.5725 118.893 47.0008L120.831 47.9276C120.277 48.9545 119.516 49.7873 118.534 50.4198C117.572 51.0334 116.408 51.3465 115.049 51.3465V51.3403ZM118.736 43.1498C118.698 42.6364 118.553 42.1229 118.295 41.6094C118.037 41.096 117.616 40.6576 117.031 40.3007C116.464 39.9438 115.735 39.7622 114.841 39.7622C113.878 39.7622 113.042 40.069 112.337 40.689C111.632 41.3026 111.185 42.1292 110.997 43.1561H118.736V43.1498ZM121.831 38.1968H124.204L128.123 48.3659H128.174L132.144 38.1968H134.466L129.231 50.9332H127.01L121.825 38.1968H121.831ZM141.551 51.3403C140.311 51.3403 139.204 51.0522 138.222 50.4699C137.259 49.8875 136.504 49.086 135.951 48.0591C135.397 47.0321 135.126 45.8675 135.126 44.565C135.126 43.3314 135.384 42.2043 135.9 41.1774C136.416 40.1317 137.146 39.3114 138.09 38.7102C139.053 38.0966 140.154 37.7835 141.393 37.7835C142.633 37.7835 143.715 38.0653 144.646 38.6288C145.59 39.1736 146.314 39.9563 146.811 40.9645C147.308 41.9726 147.559 43.1373 147.559 44.4586C147.559 44.6965 147.54 44.8718 147.509 44.972H137.347C137.379 45.9301 137.612 46.7441 138.046 47.4079C138.474 48.0591 139.009 48.5475 139.644 48.8731C140.298 49.1987 140.965 49.3615 141.657 49.3615C143.275 49.3615 144.52 48.5725 145.395 47.0008L147.333 47.9276C146.779 48.9545 146.018 49.7873 145.036 50.4198C144.074 51.0334 142.91 51.3465 141.551 51.3465V51.3403ZM145.238 43.1498C145.206 42.6364 145.055 42.1229 144.797 41.6094C144.539 41.096 144.118 40.6576 143.532 40.3007C142.966 39.9438 142.236 39.7622 141.343 39.7622C140.38 39.7622 139.543 40.069 138.839 40.689C138.134 41.3026 137.687 42.1292 137.498 43.1561H145.238V43.1498ZM150.032 32.5486H152.228V50.9332H150.032V32.5486ZM161.125 51.3403C159.873 51.3403 158.74 51.0522 157.746 50.4699C156.752 49.8687 155.965 49.0547 155.399 48.0278C154.845 46.9821 154.575 45.8299 154.575 44.565C154.575 43.3001 154.852 42.1542 155.399 41.1273C155.965 40.0816 156.752 39.2675 157.746 38.6914C158.74 38.0903 159.873 37.7897 161.125 37.7897C162.377 37.7897 163.51 38.0903 164.504 38.6914C165.517 39.2738 166.303 40.0878 166.851 41.1273C167.417 42.1542 167.7 43.3001 167.7 44.565C167.7 45.8299 167.417 46.9883 166.851 48.0278C166.297 49.0547 165.517 49.8687 164.504 50.4699C163.51 51.0522 162.377 51.3403 161.125 51.3403ZM161.125 49.3615C161.899 49.3615 162.622 49.1674 163.289 48.7729C163.956 48.3784 164.491 47.8211 164.887 47.101C165.303 46.3621 165.504 45.5168 165.504 44.5587C165.504 43.6007 165.296 42.7616 164.887 42.0415C164.491 41.3026 163.956 40.739 163.289 40.3446C162.622 39.9501 161.899 39.7559 161.125 39.7559C160.351 39.7559 159.653 39.9501 158.986 40.3446C158.312 40.739 157.771 41.3026 157.362 42.0415C156.966 42.7616 156.771 43.6007 156.771 44.5587C156.771 45.5168 156.966 46.3621 157.362 47.101C157.778 47.8211 158.319 48.3784 158.986 48.7729C159.659 49.1674 160.37 49.3615 161.125 49.3615ZM169.959 38.1968H172.048V40.069H172.148C172.564 39.4178 173.155 38.8793 173.929 38.4535C174.703 38.0089 175.596 37.7835 176.609 37.7835C177.71 37.7835 178.723 38.084 179.655 38.6852C180.586 39.2675 181.322 40.069 181.876 41.096C182.429 42.1229 182.7 43.2751 182.7 44.5587C182.7 45.8424 182.423 47.0008 181.876 48.0215C181.328 49.0422 180.586 49.8625 179.655 50.4636C178.723 51.046 177.71 51.334 176.609 51.334C175.596 51.334 174.69 51.1211 173.904 50.6953C173.13 50.2507 172.545 49.6934 172.148 49.0234H172.048L172.148 50.7955V56.4687H169.952V38.1905L169.959 38.1968ZM176.276 49.3615C177.031 49.3615 177.729 49.1674 178.365 48.7729C179.019 48.3784 179.535 47.8211 179.913 47.101C180.309 46.3621 180.504 45.5168 180.504 44.5587C180.504 43.6007 180.309 42.7616 179.913 42.0415C179.535 41.3026 179.019 40.739 178.365 40.3446C177.729 39.9501 177.031 39.7559 176.276 39.7559C175.521 39.7559 174.816 39.9501 174.162 40.3446C173.526 40.7203 173.01 41.2776 172.614 42.0164C172.236 42.7366 172.048 43.5819 172.048 44.5587C172.048 45.5356 172.236 46.3621 172.614 47.101C173.01 47.8399 173.526 48.4035 174.162 48.798C174.816 49.1737 175.521 49.3615 176.276 49.3615ZM190.88 51.3403C189.64 51.3403 188.533 51.0522 187.551 50.4699C186.588 49.8875 185.833 49.086 185.28 48.0591C184.732 47.0321 184.455 45.8675 184.455 44.565C184.455 43.3314 184.713 42.2043 185.229 41.1774C185.745 40.1317 186.475 39.3114 187.419 38.7102C188.382 38.0966 189.483 37.7835 190.722 37.7835C191.962 37.7835 193.044 38.0653 193.975 38.6288C194.919 39.1736 195.643 39.9563 196.14 40.9645C196.637 41.9726 196.888 43.1373 196.888 44.4586C196.888 44.6965 196.87 44.8718 196.838 44.972H186.677C186.708 45.9301 186.941 46.7441 187.375 47.4079C187.803 48.0591 188.338 48.5475 188.973 48.8731C189.627 49.1987 190.294 49.3615 190.987 49.3615C192.604 49.3615 193.849 48.5725 194.73 47.0008L196.662 47.9276C196.115 48.9545 195.347 49.7873 194.365 50.4198C193.403 51.0334 192.239 51.3465 190.88 51.3465V51.3403ZM194.567 43.1498C194.535 42.6364 194.384 42.1229 194.126 41.6094C193.868 41.096 193.447 40.6576 192.862 40.3007C192.295 39.9438 191.565 39.7622 190.672 39.7622C189.709 39.7622 188.872 40.069 188.168 40.689C187.463 41.3026 187.016 42.1292 186.828 43.1561H194.567V43.1498ZM199.361 38.1968H201.45V40.2757H201.551C201.79 39.5744 202.281 38.992 203.023 38.5286C203.778 38.0465 204.527 37.8085 205.269 37.8085C205.804 37.8085 206.301 37.8837 206.767 38.0402V40.4009C206.301 40.1442 205.703 40.0189 204.961 40.0189C204.357 40.0189 203.791 40.2005 203.256 40.5575C202.74 40.9018 202.325 41.359 202.016 41.9413C201.708 42.5237 201.551 43.1561 201.551 43.8386V50.927H199.355V38.1905L199.361 38.1968ZM223.403 51.3403C221.666 51.3403 220.055 50.9207 218.577 50.0816C217.117 49.2426 215.953 48.0904 215.091 46.6189C214.248 45.1473 213.826 43.5193 213.826 41.7409C213.826 39.9626 214.248 38.3345 215.091 36.863C215.953 35.3915 217.111 34.233 218.577 33.4002C220.055 32.5611 221.666 32.1416 223.403 32.1416C224.762 32.1416 226.033 32.3795 227.222 32.8617C228.424 33.3439 229.418 34.0201 230.186 34.8905L228.613 36.456C228.027 35.7359 227.272 35.1911 226.341 34.8154C225.429 34.4209 224.447 34.2268 223.403 34.2268C222.113 34.2268 220.899 34.5461 219.766 35.1786C218.646 35.7922 217.746 36.6751 217.06 37.821C216.387 38.9482 216.054 40.2631 216.054 41.7472C216.054 43.2312 216.387 44.5525 217.06 45.6984C217.746 46.8255 218.652 47.7084 219.766 48.3409C220.899 48.9545 222.113 49.2676 223.403 49.2676C224.693 49.2676 225.674 49.0798 226.498 48.704C227.342 48.3096 228.071 47.7961 228.694 47.1636C229.141 46.6815 229.5 46.1054 229.777 45.4166C230.053 44.7341 230.217 43.9889 230.267 43.1811H223.459V41.1523H232.331C232.419 41.6345 232.457 42.0791 232.457 42.4861C232.457 43.6132 232.274 44.7215 231.916 45.7986C231.557 46.8568 230.978 47.7898 230.186 48.5976C228.449 50.426 226.19 51.3465 223.403 51.3465V51.3403ZM234.703 38.1968H236.792V40.2757H236.893C237.132 39.5744 237.623 38.992 238.365 38.5286C239.12 38.0465 239.869 37.8085 240.611 37.8085C241.146 37.8085 241.643 37.8837 242.109 38.0402V40.4009C241.643 40.1442 241.045 40.0189 240.303 40.0189C239.699 40.0189 239.133 40.2005 238.598 40.5575C238.082 40.9018 237.667 41.359 237.358 41.9413C237.05 42.5237 236.893 43.1561 236.893 43.8386V50.927H234.703V38.1905V38.1968ZM249.2 51.3403C247.941 51.3403 246.815 51.0522 245.821 50.4699C244.821 49.8687 244.04 49.0547 243.474 48.0278C242.92 46.9821 242.65 45.8299 242.65 44.565C242.65 43.3001 242.927 42.1542 243.474 41.1273C244.04 40.0816 244.821 39.2675 245.821 38.6914C246.822 38.0903 247.948 37.7897 249.2 37.7897C250.452 37.7897 251.585 38.0903 252.579 38.6914C253.592 39.2738 254.378 40.0878 254.926 41.1273C255.492 42.1542 255.775 43.3001 255.775 44.565C255.775 45.8299 255.492 46.9883 254.926 48.0278C254.372 49.0547 253.592 49.8687 252.579 50.4699C251.578 51.0522 250.452 51.3403 249.2 51.3403ZM249.2 49.3615C249.974 49.3615 250.697 49.1674 251.364 48.7729C252.038 48.3784 252.566 47.8211 252.962 47.101C253.378 46.3621 253.579 45.5168 253.579 44.5587C253.579 43.6007 253.371 42.7616 252.962 42.0415C252.566 41.3026 252.031 40.739 251.364 40.3446C250.691 39.9501 249.974 39.7559 249.2 39.7559C248.426 39.7559 247.728 39.9501 247.061 40.3446C246.394 40.739 245.846 41.3026 245.437 42.0415C245.041 42.7616 244.846 43.6007 244.846 44.5587C244.846 45.5168 245.041 46.3621 245.437 47.101C245.853 47.8211 246.394 48.3784 247.061 48.7729C247.728 49.1674 248.445 49.3615 249.2 49.3615ZM262.853 51.3403C261.268 51.3403 260.066 50.8894 259.242 49.9815C258.43 49.0735 258.028 47.8149 258.028 46.2056V38.1968H260.217V45.8487C260.217 48.1906 261.274 49.3678 263.388 49.3678C264.093 49.3678 264.722 49.1737 265.27 48.7792C265.836 48.3847 266.27 47.8712 266.559 47.2388C266.868 46.6063 267.025 45.9363 267.025 45.235V38.203H269.189V50.9395H267.126V49.0422H267.025C266.648 49.6934 266.069 50.2382 265.295 50.6828C264.54 51.1274 263.722 51.3528 262.841 51.3528L262.853 51.3403ZM272.317 38.1968H274.406V40.069H274.506C274.921 39.4178 275.513 38.8793 276.287 38.4535C277.061 38.0089 277.954 37.7835 278.967 37.7835C280.068 37.7835 281.081 38.084 282.013 38.6852C282.944 39.2675 283.68 40.069 284.234 41.096C284.781 42.1229 285.058 43.2751 285.058 44.5587C285.058 45.8424 284.781 47.0008 284.234 48.0215C283.68 49.0484 282.944 49.8625 282.013 50.4636C281.081 51.046 280.068 51.334 278.967 51.334C277.954 51.334 277.048 51.1211 276.262 50.6953C275.488 50.2507 274.903 49.6934 274.506 49.0234H274.406L274.506 50.7955V56.4687H272.31V38.1905L272.317 38.1968ZM278.634 49.3615C279.389 49.3615 280.087 49.1674 280.723 48.7729C281.377 48.3784 281.893 47.8211 282.27 47.101C282.667 46.3621 282.862 45.5168 282.862 44.5587C282.862 43.6007 282.661 42.7616 282.27 42.0415C281.893 41.3026 281.377 40.739 280.723 40.3446C280.087 39.9501 279.389 39.7559 278.634 39.7559C277.879 39.7559 277.174 39.9501 276.52 40.3446C275.884 40.7203 275.368 41.2776 274.972 42.0164C274.594 42.7366 274.406 43.5819 274.406 44.5587C274.406 45.5356 274.594 46.3621 274.972 47.101C275.368 47.8399 275.884 48.4035 276.52 48.798C277.174 49.1737 277.879 49.3615 278.634 49.3615ZM291.922 51.3403C290.563 51.3403 289.412 50.9959 288.468 50.3133C287.524 49.6308 286.857 48.7792 286.48 47.771L288.411 46.9257C288.758 47.7272 289.236 48.3471 289.859 48.7729C290.494 49.1987 291.18 49.4179 291.922 49.4179C292.747 49.4179 293.426 49.2363 293.961 48.8794C294.515 48.5225 294.785 48.0841 294.785 47.5707C294.785 47.0572 294.578 46.6627 294.169 46.3371C293.772 46.0115 293.086 45.7297 292.105 45.4917L290.349 45.0534C289.387 44.828 288.562 44.4272 287.87 43.8449C287.197 43.2625 286.864 42.4923 286.864 41.5343C286.864 40.7453 287.084 40.069 287.537 39.5055C288.002 38.9419 288.613 38.5098 289.368 38.2218C290.123 37.9338 290.953 37.7835 291.847 37.7835C292.948 37.7835 293.948 38.0402 294.842 38.5537C295.754 39.0484 296.396 39.7622 296.773 40.6827L294.842 41.503C294.565 40.8893 294.143 40.4322 293.577 40.1442C293.023 39.8561 292.407 39.7058 291.721 39.7058C291.035 39.7058 290.437 39.8687 289.89 40.1943C289.355 40.5199 289.091 40.9394 289.091 41.4529C289.091 41.8975 289.261 42.2481 289.607 42.5049C289.966 42.7616 290.538 42.9933 291.312 43.1999L293.219 43.6633C294.49 43.9889 295.44 44.4773 296.056 45.1286C296.692 45.761 297.013 46.5249 297.013 47.4141C297.013 48.153 296.799 48.8168 296.371 49.4179C295.943 50.019 295.339 50.4887 294.565 50.8268C293.791 51.1712 292.917 51.3403 291.935 51.3403H291.922Z" fill="#676C72"/>
<path d="M136.448 73.0001C135.366 73.0001 134.384 72.7434 133.491 72.2361C132.597 71.7227 131.899 71.0214 131.383 70.1197C130.879 69.2242 130.628 68.2286 130.628 67.1453C130.628 66.062 130.879 65.0664 131.383 64.171C131.899 63.2755 132.597 62.5679 133.491 62.0545C134.384 61.541 135.366 61.2905 136.448 61.2905C137.297 61.2905 138.071 61.4533 138.763 61.7727C139.468 62.0858 140.066 62.5366 140.575 63.119L139.631 64.0395C139.21 63.526 138.738 63.1503 138.216 62.9123C137.7 62.6744 137.115 62.5491 136.454 62.5491C135.649 62.5491 134.9 62.7433 134.22 63.1315C133.541 63.5072 132.993 64.0457 132.584 64.7408C132.188 65.4296 131.987 66.2311 131.987 67.139C131.987 68.047 132.188 68.8485 132.584 69.5498C132.993 70.2386 133.541 70.7771 134.22 71.1591C134.9 71.5348 135.649 71.7227 136.454 71.7227C137.826 71.7227 138.99 71.1654 139.946 70.0445L140.909 70.9838C140.393 71.5974 139.757 72.0921 138.99 72.4553C138.222 72.8122 137.379 72.9876 136.454 72.9876L136.448 73.0001ZM144.747 73.0001C144.181 73.0001 143.665 72.8874 143.205 72.6682C142.752 72.4365 142.4 72.1234 142.136 71.7289C141.884 71.3219 141.758 70.8648 141.758 70.3639C141.758 69.5373 142.066 68.8986 142.683 68.4415C143.312 67.9844 144.118 67.7527 145.093 67.7527C145.577 67.7527 146.012 67.8028 146.395 67.9092C146.785 68.0157 147.094 68.1284 147.32 68.2536V67.8466C147.32 67.4709 147.22 67.139 147.025 66.8447C146.836 66.5442 146.578 66.3125 146.257 66.1559C145.93 65.9869 145.584 65.9055 145.2 65.9055C144.306 65.9055 143.627 66.2687 143.155 66.9888L142.041 66.2499C142.369 65.7677 142.796 65.3983 143.331 65.1353C143.866 64.866 144.47 64.7283 145.143 64.7283C146.213 64.7283 147.056 65.0163 147.679 65.5924C148.296 66.1685 148.604 66.9387 148.604 67.9092V72.7434H147.327V71.6037H147.264C147.012 71.9982 146.672 72.3363 146.244 72.6056C145.817 72.8686 145.319 72.9938 144.747 72.9938V73.0001ZM144.86 71.8291C145.282 71.8291 145.678 71.7164 146.056 71.4973C146.433 71.2781 146.735 70.9838 146.968 70.6018C147.207 70.2261 147.327 69.8191 147.327 69.3808C146.741 69.0051 146.062 68.8172 145.301 68.8172C144.64 68.8172 144.111 68.9675 143.709 69.2681C143.319 69.5624 143.13 69.9381 143.13 70.3952C143.13 70.8147 143.306 71.1591 143.646 71.4284C143.992 71.6914 144.395 71.8166 144.86 71.8166V71.8291ZM150.435 61.541H151.769V72.7496H150.435V61.541ZM153.726 61.541H155.059V72.7496H153.726V61.541ZM159.464 73.0001C158.898 73.0001 158.382 72.8874 157.922 72.6682C157.469 72.4365 157.117 72.1234 156.853 71.7289C156.601 71.3219 156.475 70.8648 156.475 70.3639C156.475 69.5373 156.783 68.8986 157.4 68.4415C158.029 67.9844 158.835 67.7527 159.804 67.7527C160.288 67.7527 160.722 67.8028 161.112 67.9092C161.502 68.0157 161.811 68.1284 162.037 68.2536V67.8466C162.037 67.4709 161.937 67.139 161.741 66.8447C161.553 66.5442 161.295 66.3125 160.968 66.1559C160.64 65.9869 160.294 65.9055 159.911 65.9055C159.017 65.9055 158.338 66.2687 157.866 66.9888L156.752 66.2499C157.079 65.7677 157.507 65.3983 158.042 65.1353C158.577 64.866 159.181 64.7283 159.854 64.7283C160.924 64.7283 161.767 65.0163 162.383 65.5924C163 66.1685 163.314 66.9387 163.314 67.9092V72.7434H162.037V71.6037H161.974C161.723 71.9982 161.383 72.3363 160.955 72.6056C160.527 72.8686 160.024 72.9938 159.458 72.9938L159.464 73.0001ZM159.577 71.8291C159.999 71.8291 160.395 71.7164 160.773 71.4973C161.15 71.2781 161.452 70.9838 161.685 70.6018C161.924 70.2261 162.044 69.8191 162.044 69.3808C161.458 69.0051 160.779 68.8172 160.017 68.8172C159.357 68.8172 158.828 68.9675 158.426 69.2681C158.036 69.5624 157.84 69.9381 157.84 70.3952C157.84 70.8147 158.017 71.1591 158.363 71.4284C158.709 71.6914 159.111 71.8166 159.571 71.8166L159.577 71.8291ZM168.631 73.0001C167.864 73.0001 167.178 72.8248 166.574 72.4678C165.963 72.1047 165.485 71.6037 165.145 70.9775C164.812 70.3388 164.642 69.6375 164.642 68.861C164.642 68.0846 164.812 67.3895 165.145 66.7633C165.492 66.1246 165.97 65.63 166.574 65.2793C167.184 64.9161 167.87 64.7283 168.631 64.7283C169.393 64.7283 170.085 64.9098 170.695 65.2793C171.312 65.6362 171.79 66.1309 172.123 66.7633C172.469 67.3895 172.639 68.0908 172.639 68.861C172.639 69.6312 172.469 70.3388 172.123 70.9775C171.79 71.6037 171.312 72.0984 170.695 72.4678C170.085 72.8248 169.399 73.0001 168.631 73.0001ZM168.631 71.7978C169.103 71.7978 169.544 71.6788 169.953 71.4409C170.361 71.2029 170.689 70.8586 170.928 70.4265C171.179 69.9756 171.305 69.4622 171.305 68.8798C171.305 68.2975 171.179 67.784 170.928 67.3457C170.689 66.8948 170.361 66.5504 169.953 66.3125C169.544 66.0745 169.103 65.9493 168.631 65.9493C168.159 65.9493 167.738 66.0683 167.329 66.3125C166.92 66.5504 166.586 66.8948 166.341 67.3457C166.102 67.784 165.982 68.2975 165.982 68.8798C165.982 69.4622 166.102 69.9819 166.341 70.4265C166.593 70.8648 166.926 71.2029 167.329 71.4409C167.738 71.6788 168.172 71.7978 168.631 71.7978Z" fill="#676C72"/>
</g>
<defs>
<clipPath id="clip0_2149_150">
<rect width="297" height="73" fill="white"/>
</clipPath>
</defs>
</svg>
