<?xml version="1.0" encoding="UTF-8"?>
<svg id="Capa_1" data-name="Capa 1" xmlns="http://www.w3.org/2000/svg" viewBox="0 0 91.49 11.25">
  <defs>
    <style>
      .cls-1 {
        fill: #fff;
        stroke-width: 0px;
      }
    </style>
  </defs>
  <path class="cls-1" d="M5.77,5.65l3.93-2.18c.93-.51,1.24-1.65.71-2.54-.53-.89-1.72-1.19-2.65-.68L.97,4.02l4.8,1.63Z"/>
  <path class="cls-1" d="M8.74,11.25c.67,0,1.32-.33,1.68-.93.53-.89.22-2.03-.71-2.54l-6.8-3.77c-.93-.51-2.11-.21-2.65.68-.53.89-.22,2.03.71,2.54l6.8,3.77c.3.17.64.25.97.25Z"/>
  <path class="cls-1" d="M15.5,11.25c.33,0,.66-.08.97-.25l6.8-3.77-4.74-1.66-4,2.21c-.93.51-1.24,1.65-.71,2.54.36.6,1.01.93,1.68.93Z"/>
  <path class="cls-1" d="M22.3,7.48c.67,0,1.32-.33,1.68-.93.53-.89.22-2.03-.71-2.54L16.47.25c-.93-.51-2.11-.21-2.65.68-.53.89-.22,2.03.71,2.54l6.8,3.77c.31.17.64.25.97.25Z"/>
  <path class="cls-1" d="M33.59,10c-.81,0-1.55-.19-2.24-.58-.68-.39-1.22-.92-1.62-1.6-.39-.68-.59-1.43-.59-2.25s.2-1.57.59-2.25c.4-.68.94-1.21,1.62-1.6.69-.39,1.43-.58,2.24-.58.63,0,1.22.11,1.77.33.56.22,1.02.53,1.38.93l-.73.72c-.27-.33-.62-.58-1.05-.76-.42-.18-.88-.27-1.37-.27-.6,0-1.16.15-1.69.44-.52.28-.94.69-1.26,1.22-.31.52-.47,1.12-.47,1.81s.16,1.29.47,1.82c.32.52.74.93,1.26,1.22.53.28,1.09.43,1.69.43s1.05-.09,1.44-.26c.39-.18.73-.42,1.02-.71.21-.22.38-.49.5-.8.13-.32.2-.66.23-1.03h-3.16v-.93h4.12c.04.22.06.43.06.61,0,.52-.08,1.03-.25,1.53-.17.49-.44.92-.8,1.29-.81.84-1.86,1.27-3.15,1.27ZM39.27,1.34h2.6c.88,0,1.64.18,2.3.54.65.35,1.16.85,1.51,1.49.35.64.53,1.37.53,2.2s-.18,1.56-.53,2.2c-.35.64-.85,1.14-1.51,1.5-.65.35-1.42.53-2.3.53h-2.6V1.34ZM41.87,8.85c1.01,0,1.82-.29,2.41-.86.59-.58.89-1.38.89-2.41s-.3-1.84-.89-2.41c-.59-.58-1.39-.86-2.41-.86h-1.58v6.55h1.58ZM51.69,10c-.81,0-1.55-.19-2.24-.58-.68-.39-1.22-.92-1.62-1.6-.39-.68-.59-1.43-.59-2.25s.2-1.57.59-2.25c.4-.68.94-1.21,1.62-1.6.69-.39,1.43-.58,2.24-.58.63,0,1.22.11,1.77.33.56.22,1.02.53,1.38.93l-.73.72c-.27-.33-.62-.58-1.05-.76-.42-.18-.88-.27-1.37-.27-.6,0-1.16.15-1.69.44-.52.28-.94.69-1.26,1.22-.31.52-.47,1.12-.47,1.81s.16,1.29.47,1.82c.32.52.74.93,1.26,1.22.53.28,1.09.43,1.69.43s1.05-.09,1.44-.26c.39-.18.73-.42,1.02-.71.21-.22.38-.49.5-.8.13-.32.2-.66.23-1.03h-3.16v-.93h4.12c.04.22.06.43.06.61,0,.52-.08,1.03-.25,1.53-.17.49-.43.92-.8,1.29-.81.84-1.86,1.27-3.15,1.27ZM63.94,10c-.82,0-1.57-.19-2.25-.58-.68-.39-1.21-.92-1.6-1.6-.38-.68-.57-1.43-.57-2.25s.19-1.57.57-2.25c.39-.68.93-1.21,1.6-1.6.68-.39,1.43-.58,2.25-.58.65,0,1.23.12,1.76.37.54.24.99.58,1.38,1.02l-.72.7c-.32-.39-.68-.67-1.08-.85-.39-.18-.84-.27-1.34-.27-.61,0-1.18.15-1.7.44-.52.28-.93.69-1.25,1.22-.3.52-.45,1.12-.45,1.81s.15,1.29.45,1.82c.31.52.73.93,1.25,1.22.52.28,1.09.43,1.7.43,1.05,0,1.93-.42,2.66-1.27l.73.71c-.39.47-.88.84-1.46,1.11-.58.27-1.23.4-1.93.4ZM70.26,10c-.43,0-.82-.08-1.17-.25-.34-.17-.61-.41-.81-.71-.19-.31-.29-.65-.29-1.03,0-.62.24-1.11.71-1.45.48-.35,1.09-.52,1.83-.52.37,0,.7.04.99.12.3.08.53.17.71.26v-.31c0-.28-.08-.54-.23-.76-.14-.23-.34-.4-.59-.52-.25-.13-.51-.19-.8-.19-.68,0-1.2.27-1.56.82l-.85-.56c.25-.36.57-.64.98-.84.41-.21.87-.31,1.38-.31.81,0,1.46.22,1.93.65.47.43.71,1.02.71,1.75v3.65h-.97v-.86h-.05c-.19.3-.45.55-.78.76-.33.2-.71.3-1.14.3ZM70.34,9.11c.32,0,.62-.08.91-.25.29-.17.52-.39.69-.67.18-.28.28-.59.28-.92-.45-.28-.96-.43-1.54-.43-.5,0-.91.11-1.21.34-.3.22-.44.5-.44.85,0,.32.13.58.4.78.26.2.57.3.92.3ZM74.59,1.34h1.02v8.47h-1.02V1.34ZM77.09,1.34h1.02v8.47h-1.02V1.34ZM81.46,10c-.43,0-.82-.08-1.17-.25-.34-.17-.61-.41-.81-.71-.19-.31-.29-.65-.29-1.03,0-.62.24-1.11.71-1.45.48-.35,1.09-.52,1.83-.52.37,0,.7.04.99.12.3.08.53.17.71.26v-.31c0-.28-.08-.54-.23-.76-.14-.23-.34-.4-.59-.52-.25-.13-.51-.19-.8-.19-.68,0-1.2.27-1.56.82l-.85-.56c.25-.36.57-.64.98-.84.41-.21.87-.31,1.38-.31.81,0,1.46.22,1.93.65.47.43.71,1.02.71,1.75v3.65h-.97v-.86h-.05c-.19.3-.45.55-.78.76-.33.2-.71.3-1.14.3ZM81.54,9.11c.32,0,.62-.08.91-.25s.52-.39.69-.67c.18-.28.28-.59.28-.92-.45-.28-.96-.43-1.54-.43-.5,0-.91.11-1.21.34-.3.22-.44.5-.44.85,0,.32.13.58.4.78.26.2.57.3.92.3ZM88.44,10c-.58,0-1.11-.13-1.57-.4-.46-.28-.83-.65-1.09-1.12-.26-.48-.38-1.01-.38-1.6s.13-1.11.38-1.58c.26-.48.63-.86,1.09-1.12.46-.28.99-.41,1.57-.41s1.11.14,1.57.41c.47.27.83.64,1.09,1.12.26.47.4,1,.4,1.58s-.13,1.12-.4,1.6c-.26.47-.62.85-1.09,1.12-.46.27-.99.4-1.57.4ZM88.44,9.09c.36,0,.69-.09,1.01-.27.31-.18.56-.44.74-.77.19-.34.29-.73.29-1.17s-.1-.83-.29-1.16c-.18-.34-.43-.6-.74-.78-.31-.18-.65-.27-1.01-.27s-.68.09-.99.27c-.31.18-.56.44-.75.78-.18.33-.28.72-.28,1.16s.09.83.28,1.17c.19.33.44.59.75.77.31.18.64.27.99.27Z"/>
</svg>