<svg width="120" height="120" viewBox="0 0 120 120" fill="none" xmlns="http://www.w3.org/2000/svg">
<path d="M120 0.00012207H0.00012207V120H120V0.00012207Z" fill="black"/>
<path d="M58.5001 97.5001H13.5V105H58.5001V97.5001Z" fill="white"/>
<path d="M11.1724 30.932L14.5177 27.7741C14.838 28.2743 15.2712 28.6923 15.7826 28.9944C16.2939 29.2966 16.8691 29.4744 17.4617 29.5136C18.7463 29.5136 19.5761 28.6305 19.5762 26.891L19.5763 15.0353H24.7416L24.7415 26.9177C24.8145 27.8764 24.6882 28.8398 24.3703 29.7472C24.0525 30.6546 23.55 31.4863 22.8947 32.1898C22.2081 32.833 21.3997 33.3324 20.5173 33.6587C19.6348 33.985 18.6961 34.1317 17.7561 34.09C16.4825 34.154 15.213 33.8986 14.0632 33.3471C12.9134 32.7956 11.9196 31.9654 11.1724 30.932Z" fill="white"/>
<path d="M27.0546 15.0352L42.1223 15.0352V19.4243H32.1932V22.2878H41.1856V26.3824H32.1932V29.353H42.2561V33.7687H27.0546L27.0546 15.0352Z" fill="white"/>
<path d="M49.4632 19.5848H43.8696V15.0352L60.2756 15.0352V19.5849H54.6553L54.6552 33.7687H49.4631L49.4632 19.5848Z" fill="white"/>
<path d="M13.2618 41.1586H22.0943C23.0136 41.0856 23.9383 41.1947 24.8154 41.4794C25.6926 41.7641 26.505 42.219 27.2062 42.8179C27.6006 43.2202 27.9104 43.6974 28.1172 44.2214C28.3241 44.7454 28.4238 45.3056 28.4106 45.8688V45.9223C28.4287 46.8337 28.1592 47.7277 27.6403 48.4771C27.1214 49.2266 26.3795 49.7934 25.52 50.0971C27.7949 50.8465 29.2401 52.1311 29.2401 54.6735V54.7271C29.2401 57.9385 26.6172 59.8921 22.1478 59.8921H13.2616L13.2618 41.1586ZM23.2987 46.9393C23.2987 45.8955 22.4691 45.3335 20.9435 45.3335H18.3199V48.6252H20.8097C22.3887 48.6252 23.2987 48.09 23.2987 46.9927L23.2987 46.9393ZM21.5056 52.2649H18.3199V55.7172H21.559C23.1648 55.7172 24.048 55.1017 24.0481 54.0044V53.951C24.048 52.934 23.2451 52.2649 21.5056 52.2649Z" fill="white"/>
<path d="M30.9044 41.1591H39.2023C40.3017 41.0712 41.4077 41.2034 42.4555 41.548C43.5032 41.8927 44.4717 42.4428 45.3043 43.1663C45.8655 43.7406 46.3024 44.4243 46.5878 45.1748C46.8733 45.9253 47.0012 46.7265 46.9635 47.5286V47.5822C47.0099 48.8284 46.6625 50.0576 45.9707 51.0953C45.2789 52.1329 44.2779 52.9263 43.1096 53.3627L47.5789 59.8927H41.6107L37.8372 54.2191H36.0964V59.8927H30.9043L30.9044 41.1591ZM38.9879 50.1513C40.7275 50.1513 41.7714 49.2949 41.7714 47.93V47.8765C41.7714 46.3778 40.6741 45.6285 38.9612 45.6285H36.0964V50.1512L38.9879 50.1513Z" fill="white"/>
<path d="M54.1812 41.0253H59.186L67.1615 59.8926H61.5946L60.2564 56.5206H53.0036L51.6653 59.8926H46.2323L54.1812 41.0253ZM58.7309 52.4795L56.6435 47.1806L54.5291 52.4795L58.7309 52.4795Z" fill="white"/>
<path d="M67.9228 41.1053H73.1148L73.1147 59.8389H67.9226L67.9228 41.1053Z" fill="white"/>
<path d="M75.1286 41.1053H79.9728L86.7113 51.0074L86.7114 41.1054H91.85L91.8498 59.8389H87.3268L80.2671 49.5622L80.267 59.8389H75.1284L75.1286 41.1053Z" fill="white"/>
<path d="M92.7338 57.0552L95.6241 53.603C97.3321 55.026 99.4767 55.8195 101.7 55.851C103.118 55.851 103.867 55.3693 103.867 54.5664V54.513C103.867 53.71 103.252 53.3086 100.683 52.693C96.6948 51.7832 93.617 50.659 93.617 46.8321V46.7786C93.617 43.2996 96.3737 40.7839 100.87 40.7839C103.653 40.6774 106.383 41.5591 108.578 43.2728L105.982 46.9392C104.466 45.7971 102.633 45.1521 100.736 45.0927C99.4783 45.0927 98.8627 45.6012 98.8627 46.297V46.3505C98.8627 47.2069 99.505 47.5816 102.128 48.1703C106.41 49.107 109.086 50.4987 109.086 54.0045V54.0581C109.086 57.885 106.062 60.1598 101.512 60.1597C98.3051 60.2315 95.1826 59.1272 92.7338 57.0552Z" fill="white"/>
</svg>
